{
	"asset":{
		"generator":"Khronos glTF Blender I/O v4.0.44",
		"version":"2.0"
	},
	"extensionsUsed":[
		"KHR_materials_specular",
		"KHR_materials_ior",
		"KHR_materials_transmission"
	],
	"scene":0,
	"scenes":[
		{
			"name":"Scene",
			"nodes":[
				0,
				1,
				2,
				3,
				4,
				5,
				6,
				7,
				8,
				9
			]
		}
	],
	"nodes":[
		{
			"mesh":0,
			"name":"Cube",
			"scale":[
				0.44999998807907104,
				0.44999998807907104,
				0.44999998807907104
			],
			"translation":[
				-0.8946523666381836,
				0.47008800506591797,
				0
			]
		},
		{
			"mesh":1,
			"name":"cupola brutta",
			"scale":[
				0.18150487542152405,
				0.00969797745347023,
				0.18921229243278503
			],
			"translation":[
				-0.903132975101471,
				2.1335551738739014,
				0
			]
		},
		{
			"mesh":2,
			"name":"PAVIMENTO",
			"scale":[
				0.5040000081062317,
				0.5040000081062317,
				0.5040000081062317
			],
			"translation":[
				-14.057479858398438,
				-0.003651142120361328,
				0
			]
		},
		{
			"mesh":3,
			"name":"PARETE",
			"scale":[
				0.5040000081062317,
				0.5040000081062317,
				0.5040000081062317
			],
			"translation":[
				-13.918481826782227,
				-0.003651142120361328,
				0
			]
		},
		{
			"mesh":4,
			"name":"SOFFITTO",
			"scale":[
				0.5040000081062317,
				0.5040000081062317,
				0.5040000081062317
			],
			"translation":[
				-14.057479858398438,
				4.1731181144714355,
				0
			]
		},
		{
			"mesh":5,
			"name":"policarb.001",
			"scale":[
				0.5040000081062317,
				0.5040000081062317,
				0.5040000081062317
			],
			"translation":[
				-14.057479858398438,
				2.0720503330230713,
				3.668632745742798
			]
		},
		{
			"mesh":6,
			"name":"policarb",
			"scale":[
				0.8004070520401001,
				0.8004070520401001,
				0.8004070520401001
			],
			"translation":[
				-14.057479858398438,
				2.0720503330230713,
				-3.6550920009613037
			]
		},
		{
			"mesh":7,
			"name":"BATTISTERO",
			"scale":[
				0.8999999761581421,
				0.8999999761581421,
				0.8999999761581421
			],
			"translation":[
				-0.8767948150634766,
				0.3390064239501953,
				0
			]
		},
		{
			"mesh":8,
			"name":"PAV BATTISTERO",
			"scale":[
				0.8999999761581421,
				0.8999999761581421,
				0.8999999761581421
			],
			"translation":[
				-13.475896835327148,
				0.6578023433685303,
				0
			]
		},
		{
			"mesh":9,
			"name":"CHIOSTRO CENTRALE.001",
			"scale":[
				0.8999999761581421,
				0.8999999761581421,
				0.8999999761581421
			],
			"translation":[
				-0.8767948150634766,
				0.666928768157959,
				0
			]
		}
	],
	"animations":[
		{
			"channels":[
				{
					"sampler":0,
					"target":{
						"node":1,
						"path":"translation"
					}
				},
				{
					"sampler":1,
					"target":{
						"node":1,
						"path":"rotation"
					}
				}
			],
			"name":"cupola bruttaAction",
			"samplers":[
				{
					"input":47,
					"interpolation":"STEP",
					"output":48
				},
				{
					"input":49,
					"interpolation":"LINEAR",
					"output":50
				}
			]
		}
	],
	"materials":[
		{
			"doubleSided":true,
			"name":"MARMO",
			"pbrMetallicRoughness":{
				"metallicFactor":0,
				"roughnessFactor":0.5
			}
		},
		{
			"doubleSided":true,
			"name":"FERRO",
			"pbrMetallicRoughness":{
				"baseColorFactor":[
					0.0011589000932872295,
					0.0011589000932872295,
					0.0011589000932872295,
					1
				],
				"metallicFactor":0,
				"roughnessFactor":0.800000011920929
			}
		},
		{
			"doubleSided":true,
			"extensions":{
				"KHR_materials_specular":{
					"specularFactor":0.6666666865348816
				},
				"KHR_materials_ior":{
					"ior":1.4500000476837158
				}
			},
			"name":"material_1",
			"pbrMetallicRoughness":{
				"metallicFactor":0
			}
		},
		{
			"doubleSided":true,
			"name":"INTONACO",
			"pbrMetallicRoughness":{
				"baseColorFactor":[
					0.800133466720581,
					0.6317743062973022,
					0.49436724185943604,
					1
				],
				"metallicFactor":0,
				"roughnessFactor":0.800000011920929
			}
		},
		{
			"doubleSided":true,
			"emissiveFactor":[
				0.6000000238418579,
				0.5752208103823975,
				0.5298840733323118
			],
			"extensions":{
				"KHR_materials_transmission":{
					"transmissionFactor":1
				},
				"KHR_materials_ior":{
					"ior":1.4500000476837158
				}
			},
			"name":"POLICARBONATO",
			"pbrMetallicRoughness":{
				"metallicFactor":0,
				"roughnessFactor":0.3499999940395355
			}
		},
		{
			"doubleSided":true,
			"emissiveFactor":[
				0.15000000596046448,
				0.13981437046584944,
				0.11173918691234519
			],
			"name":"BIANCO",
			"pbrMetallicRoughness":{
				"metallicFactor":0,
				"roughnessFactor":0.30000001192092896
			}
		}
	],
	"meshes":[
		{
			"name":"Cube.013",
			"primitives":[
				{
					"attributes":{
						"POSITION":0,
						"NORMAL":1,
						"TEXCOORD_0":2
					},
					"indices":3,
					"material":0
				}
			]
		},
		{
			"name":"Cube.006",
			"primitives":[
				{
					"attributes":{
						"POSITION":4,
						"NORMAL":5,
						"TEXCOORD_0":6
					},
					"indices":7,
					"material":1
				},
				{
					"attributes":{
						"POSITION":8,
						"NORMAL":9,
						"TEXCOORD_0":10
					},
					"indices":11,
					"material":2
				}
			]
		},
		{
			"name":"Cube.001",
			"primitives":[
				{
					"attributes":{
						"POSITION":12,
						"NORMAL":13,
						"TEXCOORD_0":14,
						"TEXCOORD_1":15
					},
					"indices":3,
					"material":3
				}
			]
		},
		{
			"name":"Cube.002",
			"primitives":[
				{
					"attributes":{
						"POSITION":16,
						"NORMAL":17,
						"TEXCOORD_0":18,
						"TEXCOORD_1":19
					},
					"indices":20,
					"material":3
				}
			]
		},
		{
			"name":"Cube.004",
			"primitives":[
				{
					"attributes":{
						"POSITION":21,
						"NORMAL":22,
						"TEXCOORD_0":23,
						"TEXCOORD_1":24
					},
					"indices":3,
					"material":3
				}
			]
		},
		{
			"name":"Cube.003",
			"primitives":[
				{
					"attributes":{
						"POSITION":25,
						"NORMAL":26,
						"TEXCOORD_0":27,
						"TEXCOORD_1":28
					},
					"indices":3,
					"material":4
				}
			]
		},
		{
			"name":"Cube.005",
			"primitives":[
				{
					"attributes":{
						"POSITION":29,
						"NORMAL":30,
						"TEXCOORD_0":31,
						"TEXCOORD_1":32
					},
					"indices":3,
					"material":4
				}
			]
		},
		{
			"name":"Cube",
			"primitives":[
				{
					"attributes":{
						"POSITION":33,
						"NORMAL":34,
						"TEXCOORD_0":35,
						"TEXCOORD_1":36
					},
					"indices":37,
					"material":3
				}
			]
		},
		{
			"name":"Cylinder.003",
			"primitives":[
				{
					"attributes":{
						"POSITION":38,
						"NORMAL":39,
						"TEXCOORD_0":40,
						"TEXCOORD_1":41
					},
					"indices":42,
					"material":3
				}
			]
		},
		{
			"name":"Cube.014",
			"primitives":[
				{
					"attributes":{
						"POSITION":43,
						"NORMAL":44,
						"TEXCOORD_0":45
					},
					"indices":46,
					"material":5
				}
			]
		}
	],
	"accessors":[
		{
			"bufferView":0,
			"componentType":5126,
			"count":24,
			"max":[
				1,
				1,
				1
			],
			"min":[
				-1,
				-1,
				-1
			],
			"type":"VEC3"
		},
		{
			"bufferView":1,
			"componentType":5126,
			"count":24,
			"type":"VEC3"
		},
		{
			"bufferView":2,
			"componentType":5126,
			"count":24,
			"type":"VEC2"
		},
		{
			"bufferView":3,
			"componentType":5123,
			"count":36,
			"type":"SCALAR"
		},
		{
			"bufferView":4,
			"componentType":5126,
			"count":401,
			"max":[
				1.0324631929397583,
				7.750876426696777,
				1.0616109371185303
			],
			"min":[
				-1.0278321504592896,
				-90.00939178466797,
				-1.0616109371185303
			],
			"type":"VEC3"
		},
		{
			"bufferView":5,
			"componentType":5126,
			"count":401,
			"type":"VEC3"
		},
		{
			"bufferView":6,
			"componentType":5126,
			"count":401,
			"type":"VEC2"
		},
		{
			"bufferView":7,
			"componentType":5123,
			"count":768,
			"type":"SCALAR"
		},
		{
			"bufferView":8,
			"componentType":5126,
			"count":153054,
			"max":[
				1.0013577938079834,
				6.7517242431640625,
				1.19797682762146
			],
			"min":[
				-0.9979100227355957,
				-88.15043640136719,
				-1.197977066040039
			],
			"type":"VEC3"
		},
		{
			"bufferView":9,
			"componentType":5126,
			"count":153054,
			"type":"VEC3"
		},
		{
			"bufferView":10,
			"componentType":5126,
			"count":153054,
			"type":"VEC2"
		},
		{
			"bufferView":11,
			"componentType":5125,
			"count":153156,
			"type":"SCALAR"
		},
		{
			"bufferView":12,
			"componentType":5126,
			"count":24,
			"max":[
				8.863327026367188,
				0,
				7.146491527557373
			],
			"min":[
				-17.866230010986328,
				-0.47643280029296875,
				-7.146491527557373
			],
			"type":"VEC3"
		},
		{
			"bufferView":13,
			"componentType":5126,
			"count":24,
			"type":"VEC3"
		},
		{
			"bufferView":14,
			"componentType":5126,
			"count":24,
			"type":"VEC2"
		},
		{
			"bufferView":15,
			"componentType":5126,
			"count":24,
			"type":"VEC2"
		},
		{
			"bufferView":16,
			"componentType":5126,
			"count":938,
			"max":[
				4.776078224182129,
				9.05222225189209,
				7.384707450866699
			],
			"min":[
				-18.56910514831543,
				-0.4764328896999359,
				-7.384707450866699
			],
			"type":"VEC3"
		},
		{
			"bufferView":17,
			"componentType":5126,
			"count":938,
			"type":"VEC3"
		},
		{
			"bufferView":18,
			"componentType":5126,
			"count":938,
			"type":"VEC2"
		},
		{
			"bufferView":19,
			"componentType":5126,
			"count":938,
			"type":"VEC2"
		},
		{
			"bufferView":20,
			"componentType":5123,
			"count":2184,
			"type":"SCALAR"
		},
		{
			"bufferView":21,
			"componentType":5126,
			"count":24,
			"max":[
				8.863327980041504,
				0,
				7.146491527557373
			],
			"min":[
				-17.866230010986328,
				-0.47643280029296875,
				-7.146491527557373
			],
			"type":"VEC3"
		},
		{
			"bufferView":22,
			"componentType":5126,
			"count":24,
			"type":"VEC3"
		},
		{
			"bufferView":23,
			"componentType":5126,
			"count":24,
			"type":"VEC2"
		},
		{
			"bufferView":24,
			"componentType":5126,
			"count":24,
			"type":"VEC2"
		},
		{
			"bufferView":25,
			"componentType":5126,
			"count":24,
			"max":[
				8.863327026367188,
				4.168787002563477,
				0.11910820007324219
			],
			"min":[
				-17.866230010986328,
				-4.844336986541748,
				-0.11910820007324219
			],
			"type":"VEC3"
		},
		{
			"bufferView":26,
			"componentType":5126,
			"count":24,
			"type":"VEC3"
		},
		{
			"bufferView":27,
			"componentType":5126,
			"count":24,
			"type":"VEC2"
		},
		{
			"bufferView":28,
			"componentType":5126,
			"count":24,
			"type":"VEC2"
		},
		{
			"bufferView":29,
			"componentType":5126,
			"count":24,
			"max":[
				5.581056118011475,
				2.625,
				0.07500000298023224
			],
			"min":[
				-11.25,
				-3.050380229949951,
				-0.07500000298023224
			],
			"type":"VEC3"
		},
		{
			"bufferView":30,
			"componentType":5126,
			"count":24,
			"type":"VEC3"
		},
		{
			"bufferView":31,
			"componentType":5126,
			"count":24,
			"type":"VEC2"
		},
		{
			"bufferView":32,
			"componentType":5126,
			"count":24,
			"type":"VEC2"
		},
		{
			"bufferView":33,
			"componentType":5126,
			"count":234,
			"max":[
				9.723837852478027,
				16.844684600830078,
				9.64158821105957
			],
			"min":[
				-9.681746482849121,
				-0.6343530416488647,
				-9.763996124267578
			],
			"type":"VEC3"
		},
		{
			"bufferView":34,
			"componentType":5126,
			"count":234,
			"type":"VEC3"
		},
		{
			"bufferView":35,
			"componentType":5126,
			"count":234,
			"type":"VEC2"
		},
		{
			"bufferView":36,
			"componentType":5126,
			"count":234,
			"type":"VEC2"
		},
		{
			"bufferView":37,
			"componentType":5123,
			"count":444,
			"type":"SCALAR"
		},
		{
			"bufferView":38,
			"componentType":5126,
			"count":480,
			"max":[
				24.73447608947754,
				-0.6875267028808594,
				10.750666618347168
			],
			"min":[
				3.2664215564727783,
				-1.3223942518234253,
				-10.717389106750488
			],
			"type":"VEC3"
		},
		{
			"bufferView":39,
			"componentType":5126,
			"count":480,
			"type":"VEC3"
		},
		{
			"bufferView":40,
			"componentType":5126,
			"count":480,
			"type":"VEC2"
		},
		{
			"bufferView":41,
			"componentType":5126,
			"count":480,
			"type":"VEC2"
		},
		{
			"bufferView":42,
			"componentType":5123,
			"count":1140,
			"type":"SCALAR"
		},
		{
			"bufferView":43,
			"componentType":5126,
			"count":3086,
			"max":[
				4.868270397186279,
				6.388548851013184,
				4.848304748535156
			],
			"min":[
				-4.868270397186279,
				-0.697667121887207,
				-4.888236045837402
			],
			"type":"VEC3"
		},
		{
			"bufferView":44,
			"componentType":5126,
			"count":3086,
			"type":"VEC3"
		},
		{
			"bufferView":45,
			"componentType":5126,
			"count":3086,
			"type":"VEC2"
		},
		{
			"bufferView":46,
			"componentType":5123,
			"count":4992,
			"type":"SCALAR"
		},
		{
			"bufferView":47,
			"componentType":5126,
			"count":2,
			"max":[
				10.416666666666666
			],
			"min":[
				0.041666666666666664
			],
			"type":"SCALAR"
		},
		{
			"bufferView":48,
			"componentType":5126,
			"count":2,
			"type":"VEC3"
		},
		{
			"bufferView":49,
			"componentType":5126,
			"count":250,
			"max":[
				10.416666666666666
			],
			"min":[
				0.041666666666666664
			],
			"type":"SCALAR"
		},
		{
			"bufferView":50,
			"componentType":5126,
			"count":250,
			"type":"VEC4"
		}
	],
	"bufferViews":[
		{
			"buffer":0,
			"byteLength":288,
			"byteOffset":0,
			"target":34962
		},
		{
			"buffer":0,
			"byteLength":288,
			"byteOffset":288,
			"target":34962
		},
		{
			"buffer":0,
			"byteLength":192,
			"byteOffset":576,
			"target":34962
		},
		{
			"buffer":0,
			"byteLength":72,
			"byteOffset":768,
			"target":34963
		},
		{
			"buffer":0,
			"byteLength":4812,
			"byteOffset":840,
			"target":34962
		},
		{
			"buffer":0,
			"byteLength":4812,
			"byteOffset":5652,
			"target":34962
		},
		{
			"buffer":0,
			"byteLength":3208,
			"byteOffset":10464,
			"target":34962
		},
		{
			"buffer":0,
			"byteLength":1536,
			"byteOffset":13672,
			"target":34963
		},
		{
			"buffer":0,
			"byteLength":1836648,
			"byteOffset":15208,
			"target":34962
		},
		{
			"buffer":0,
			"byteLength":1836648,
			"byteOffset":1851856,
			"target":34962
		},
		{
			"buffer":0,
			"byteLength":1224432,
			"byteOffset":3688504,
			"target":34962
		},
		{
			"buffer":0,
			"byteLength":612624,
			"byteOffset":4912936,
			"target":34963
		},
		{
			"buffer":0,
			"byteLength":288,
			"byteOffset":5525560,
			"target":34962
		},
		{
			"buffer":0,
			"byteLength":288,
			"byteOffset":5525848,
			"target":34962
		},
		{
			"buffer":0,
			"byteLength":192,
			"byteOffset":5526136,
			"target":34962
		},
		{
			"buffer":0,
			"byteLength":192,
			"byteOffset":5526328,
			"target":34962
		},
		{
			"buffer":0,
			"byteLength":11256,
			"byteOffset":5526520,
			"target":34962
		},
		{
			"buffer":0,
			"byteLength":11256,
			"byteOffset":5537776,
			"target":34962
		},
		{
			"buffer":0,
			"byteLength":7504,
			"byteOffset":5549032,
			"target":34962
		},
		{
			"buffer":0,
			"byteLength":7504,
			"byteOffset":5556536,
			"target":34962
		},
		{
			"buffer":0,
			"byteLength":4368,
			"byteOffset":5564040,
			"target":34963
		},
		{
			"buffer":0,
			"byteLength":288,
			"byteOffset":5568408,
			"target":34962
		},
		{
			"buffer":0,
			"byteLength":288,
			"byteOffset":5568696,
			"target":34962
		},
		{
			"buffer":0,
			"byteLength":192,
			"byteOffset":5568984,
			"target":34962
		},
		{
			"buffer":0,
			"byteLength":192,
			"byteOffset":5569176,
			"target":34962
		},
		{
			"buffer":0,
			"byteLength":288,
			"byteOffset":5569368,
			"target":34962
		},
		{
			"buffer":0,
			"byteLength":288,
			"byteOffset":5569656,
			"target":34962
		},
		{
			"buffer":0,
			"byteLength":192,
			"byteOffset":5569944,
			"target":34962
		},
		{
			"buffer":0,
			"byteLength":192,
			"byteOffset":5570136,
			"target":34962
		},
		{
			"buffer":0,
			"byteLength":288,
			"byteOffset":5570328,
			"target":34962
		},
		{
			"buffer":0,
			"byteLength":288,
			"byteOffset":5570616,
			"target":34962
		},
		{
			"buffer":0,
			"byteLength":192,
			"byteOffset":5570904,
			"target":34962
		},
		{
			"buffer":0,
			"byteLength":192,
			"byteOffset":5571096,
			"target":34962
		},
		{
			"buffer":0,
			"byteLength":2808,
			"byteOffset":5571288,
			"target":34962
		},
		{
			"buffer":0,
			"byteLength":2808,
			"byteOffset":5574096,
			"target":34962
		},
		{
			"buffer":0,
			"byteLength":1872,
			"byteOffset":5576904,
			"target":34962
		},
		{
			"buffer":0,
			"byteLength":1872,
			"byteOffset":5578776,
			"target":34962
		},
		{
			"buffer":0,
			"byteLength":888,
			"byteOffset":5580648,
			"target":34963
		},
		{
			"buffer":0,
			"byteLength":5760,
			"byteOffset":5581536,
			"target":34962
		},
		{
			"buffer":0,
			"byteLength":5760,
			"byteOffset":5587296,
			"target":34962
		},
		{
			"buffer":0,
			"byteLength":3840,
			"byteOffset":5593056,
			"target":34962
		},
		{
			"buffer":0,
			"byteLength":3840,
			"byteOffset":5596896,
			"target":34962
		},
		{
			"buffer":0,
			"byteLength":2280,
			"byteOffset":5600736,
			"target":34963
		},
		{
			"buffer":0,
			"byteLength":37032,
			"byteOffset":5603016,
			"target":34962
		},
		{
			"buffer":0,
			"byteLength":37032,
			"byteOffset":5640048,
			"target":34962
		},
		{
			"buffer":0,
			"byteLength":24688,
			"byteOffset":5677080,
			"target":34962
		},
		{
			"buffer":0,
			"byteLength":9984,
			"byteOffset":5701768,
			"target":34963
		},
		{
			"buffer":0,
			"byteLength":8,
			"byteOffset":5711752
		},
		{
			"buffer":0,
			"byteLength":24,
			"byteOffset":5711760
		},
		{
			"buffer":0,
			"byteLength":1000,
			"byteOffset":5711784
		},
		{
			"buffer":0,
			"byteLength":4000,
			"byteOffset":5712784
		}
	],
	"buffers":[
		{
			"byteLength":5716784,
			"uri":"OPERA_SINGOLA_V11-video.bin"
		}
	]
}
